<?xml version="1.0" encoding="utf-8"?>
<!-- Generator: Adobe Illustrator 19.0.0, SVG Export Plug-In . SVG Version: 6.00 Build 0)  -->
<svg version="1.1" id="Layer_1" xmlns="http://www.w3.org/2000/svg" xmlns:xlink="http://www.w3.org/1999/xlink" x="0px" y="0px"
	 viewBox="0 0 500 500" style="enable-background:new 0 0 500 500;" xml:space="preserve">
<style type="text/css">
	.st0{fill:#FFFFFF;}
	.st1{fill:#FEBD11;}
</style>
<g id="XMLID_1_">
	<path id="XMLID_3_" class="st0" d="M250.4,432.5c-2.3,0-4.5-0.1-6.3-0.4l-1.9-0.3l-1.3-1.7l-0.1-0.2c-4.3-7.3-7.1-16.6-7.7-25.9
		c-0.6-0.1-1.3-0.2-2-0.3c-1.2-0.2-2.8-0.4-4.1-0.6c-2.9,8.7-8,17-14.1,23l-1.6,1.6l-2.2-0.3c-3.6-0.5-8.4-1.9-12-3.4l-0.1,0
		l-1.7-0.8l-0.7-1.8l0-0.1c-1.4-4.6-2.1-9.9-2.1-15.1c0-3.9,0.4-7.9,1.3-12c-0.5-0.2-4.1-1.7-5-2.1c-5.3,7.9-12.3,14.6-19.7,18.7
		l-1.7,0.9l-2.2-0.6l-0.3-0.1c-3.5-1.6-7.9-4.1-10.8-6.3l-0.2-0.2l-1.5-1.6v-2.4c0-8.4,2.2-17.4,6.3-25.8c-1.5-1.1-3.4-2.6-4.9-3.8
		c-7,6.1-15.4,10.7-23.7,12.8l-2,0.6l-2-1.3l-0.1-0.1c-2.8-2.3-6.4-5.9-8.7-8.8l-0.1-0.2l-1.2-2l0.6-1.9c2.2-8.2,6.8-16.7,12.9-23.6
		c-0.4-0.5-3-3.9-3.7-4.9c-8.1,4-17.1,6.3-25.2,6.3c-0.3,0-0.7,0-1,0h-1.9l-1.5-1.5l-0.2-0.2c-2.1-2.8-4.8-7.4-6.3-10.9l-0.8-2
		l0.9-2l0.1-0.1c4.2-7.4,10.9-14.3,18.6-19.5c-1-2.5-1.8-4.1-2.3-5.3c-4.1,0.8-8.3,1.2-12.5,1.2c-5.2,0-10.1-0.6-14.7-1.9l-1.7-0.6
		l-1.1-1.7l-0.1-0.3c-1.2-3.1-2.6-8.2-3.2-12l-0.3-2l1.4-1.8l0.2-0.2c6-6.1,14.1-11.1,23.1-14.2c-0.2-1.3-0.4-2.9-0.6-4.2
		c-0.1-0.7-0.2-1.4-0.3-2c-9.5-0.6-18.7-3.2-26-7.6l-0.1-0.1l-1.9-1.2l-0.2-2.2c-0.2-1.5-0.3-3.5-0.3-6.1c0-2.6,0.1-4.5,0.3-6.1
		l0.2-2.4l2-1.1c7.4-4.4,16.6-7,26-7.6c0.2-1.8,0.5-4,0.7-5.8c-8.8-3-17.1-8-23.1-14.1l-0.1-0.1l-1.4-1.7l0.4-2
		c0.4-3.7,1.8-8.6,3.3-12l0.7-2l2.3-0.6c4.5-1.3,9.5-2,14.8-2c4.1,0,8.2,0.4,12.3,1.2c0.5-1.3,1.3-3,2.2-5.2
		c-7.9-5.3-14.6-12.3-18.7-19.6l-0.1-0.1l-1-2.1l0.9-1.9c1.4-3.3,4-7.7,6.1-10.6l1.4-1.8h2.3c0.2,0,0.4,0,0.6,0
		c8.3,0,17.3,2.2,25.6,6.3c1.2-1.6,2.7-3.6,3.8-5c-6.2-7.1-10.7-15.5-12.8-23.9l-0.4-1.6l0.9-1.9l0.3-0.3c2.3-2.8,6-6.5,8.9-8.8
		l0.2-0.1l1.8-1.1l1.8,0.4l0.1,0c8.2,2.1,16.7,6.8,23.8,12.9c1.3-1,2.9-2.2,4.2-3.2c-4.1-8.1-6.4-17.2-6.4-25.5v-3.1l1.9-1.3
		c2.7-2.1,7.2-4.7,10.5-6.1l1.7-1.1l2.4,1.1l0.2,0.1c7.3,4.1,14.3,10.8,19.6,18.6c1.2-0.5,5.3-2.3,5.9-2.5
		c-0.9-4.3-1.3-8.3-1.2-12.1c0-5.2,0.7-10.2,2-14.6l0.3-2.6l2.6-0.7c3.1-1.3,8.1-2.6,11.7-3.2l2.2-0.3l1.7,1.4l0.1,0.1
		c6.1,5.9,11.1,14.2,14.2,23.1c1.9-0.2,4.2-0.5,6.1-0.8c0.7-9.3,3.4-18.5,7.7-25.8l0.8-1.7l2.3-0.6l0.3,0c1.8-0.2,4-0.3,6.3-0.3
		c2.3,0,4.5,0.1,6.2,0.3l0.3,0l1.9,0.6l1,1.5l0,0.1c4.5,7.4,7.2,16.7,7.8,25.9c1.8,0.3,4.1,0.6,6,0.8c3.1-9,8.1-17.1,14.2-23
		l1.7-1.9l2.2,0.7c3.7,0.5,8.5,1.8,11.9,3.2l1.9,0.7l0.6,2.2c1.4,4.5,2.1,9.6,2.1,14.9c-0.1,4-0.5,8.1-1.4,12.1
		c1.8,0.7,4,1.7,5.8,2.4c5.2-7.8,12-14.3,19.5-18.6l0.1-0.1l2-1l2,0.9c3.4,1.5,7.8,4,10.6,6.2l1.9,1.2v3.2c0,8.3-2.3,17.5-6.3,25.6
		c1.5,1.1,3.3,2.6,4.8,3.7c6.9-6.1,15.3-10.7,23.4-12.7l2.4-1.3l2.1,2.2c3,2.3,6.5,6,8.5,8.6l1.8,1.8l-0.8,2.4
		c-2.1,8.1-6.7,16.6-12.9,23.6c1.1,1.4,2.5,3.3,3.6,4.7c8.4-4,17.3-6.2,25.6-6.2c0.3,0,0.5,0,0.8,0l2.1,0l1.3,1.8
		c2.3,2.9,4.8,7.3,6.2,10.6l1.2,2.3l-1.4,2.1c-4.2,7.3-10.8,14.1-18.6,19.4c0.7,1.7,1.5,3.7,2.2,5.3c4.1-0.8,8.2-1.2,12.4-1.2
		c5.1,0,10,0.6,14.5,1.9l2.3,0.5l0.9,2.3c1.2,3,2.7,8.1,3.2,12.1l0.4,2.2l-1.6,1.6c-5.8,6.1-14.1,11.1-23,14.1
		c0,0.3,0.1,0.7,0.1,1.1c0.2,1.5,0.4,3.2,0.6,4.7c9.4,0.6,18.6,3.3,25.9,7.7l2,1.2l0.3,2.2c0.2,1.7,0.4,3.8,0.4,6.3
		c0,1.7-0.1,4.1-0.4,6.3l-0.3,2.3l-2.1,1c-7.3,4.3-16.4,7-25.9,7.7c-0.2,1.5-0.4,3.3-0.6,4.6c0,0.3-0.1,0.6-0.1,0.9
		c8.9,3,17.1,8.1,23,14.1l0.2,0.3l1,1.6v1.7l0,0.2c-0.5,3.9-1.9,8.9-3.3,12l-0.8,2.4l-2.4,0.4c-4.5,1.3-9.4,1.9-14.5,1.9
		c-4.1,0-8.2-0.4-12.3-1.2c-0.6,1.4-1.4,3.5-2.1,5.1c8,5.5,14.6,12.6,18.4,19.7l0.9,1.8l-0.6,2l-0.1,0.2c-1.3,3.1-3.8,7.7-6.2,10.7
		l-1.1,1.9h-2.6l-0.5,0c-8.4,0-17.5-2.2-25.7-6.3c-1.1,1.5-2.5,3.4-3.7,4.8c6.2,7.1,10.8,15.6,12.8,23.8l0.7,2.2l-1.4,1.7
		c-2.2,3-6,6.7-8.7,8.9l-1.6,1.3l-2.4-0.5l-0.1,0c-8.2-2.2-16.7-6.8-23.6-12.9c-0.6,0.4-3.7,2.9-4.5,3.5c4.1,8.4,6.3,17.4,6.3,25.6
		v3.3l-2.1,1.2c-2.8,2.2-7.3,4.8-10.7,6.2l-1.5,0.6l-2.1-0.7l-0.3-0.2c-7.4-4.3-14.4-11-19.5-18.6c-0.9,0.4-4.7,2-5.5,2.4
		c0.8,4,1.3,8,1.4,12l0,0.1c0,4.6-0.7,9.6-2.1,14.7l-0.3,2l-2.2,1.2l-0.2,0.1c-3.3,1.4-8.5,2.6-11.9,3.2l-2.7,0.4l-1.4-1.8
		c-6.2-5.9-11.1-14-14.1-22.9c-1.7,0.2-3.8,0.5-5.4,0.7c-0.6,9.4-3.4,18.7-7.8,26l-1.2,1.9l-2.1,0.3
		C254.8,432.4,252.7,432.5,250.4,432.5z"/>
	<path id="XMLID_81_" class="st1" d="M172.7,341.4l-11.9,14.2l-3.7-3.2l12.3-13.7c-1.9-1.8-3.4-3.4-5.3-5.1l2.8-2.8
		c4.7,4.4,8.8,7.9,14,12.1l-2.4,3C176.6,344.3,174.6,342.9,172.7,341.4z M148.8,306.1l-19.4,11.3c0.7,1.4,1.4,2.9,2.3,4.3l19.4-11.3
		C150.2,308.7,149.6,307.7,148.8,306.1z M161.2,324.2l-10.5,9.1l5.3-15.5c-0.9-1.3-1.4-2.3-2.4-3.5L134.9,327
		c0.8,1.3,1.9,2.4,2.8,3.7l11.3-7.8l-5.3,15.7c0.9,1,1.8,2.6,3.1,3.7l17.4-14.9C163.2,326.3,162.1,325.4,161.2,324.2z M186.7,352
		c3.1,1.7,6,3.4,9.4,5l2-3.3c-4.6-2.4-9-5.1-12.9-7.8l-12.8,18.7c4.8,3.2,9.3,5.9,14.2,8.8l2.1-3.3l-10.3-6.1l3.5-4.9l6.8,4.1l2-3.2
		c-2.2-1.2-4.5-2.6-6.9-4.1L186.7,352z M249.8,282.2c-17.6,0-32-14.5-32-32.1c0-17.7,14.4-32.1,32-32.1c17.8,0,32,14.4,32,32.1
		C281.9,267.8,267.5,282.2,249.8,282.2z M250.2,271.6c11.7,0,21.3-9.6,21.3-21.3c0-9.7-6.8-18.2-16.1-20.5c-0.1-1-0.4-5.4-0.4-5.4
		h-10.8c0,0-0.2,4.8-0.3,5.8c-8.9,2.7-15,10.8-15,20.1C229.1,261.9,238.7,271.6,250.2,271.6z M203.1,129c0-0.4,0-0.7,0-1.1
		c-0.1-5.8,4.3-10.6,10.2-11c6.2-0.6,11.7,3.9,12.2,10.1c0,0.3,0,0.7,0,0.9c0,5.8-4.4,10.7-10.3,11.3
		C209.2,139.8,203.7,135.3,203.1,129z M207.2,128.6c0.3,4,3.8,6.9,7.7,6.6c3.8-0.4,6.6-3.4,6.6-7.2c0.1-0.2,0-0.4,0-0.7
		c-0.3-4-3.8-6.8-7.8-6.4c-3.8,0.3-6.7,3.3-6.5,7.1C207.2,128.1,207.2,128.4,207.2,128.6z M253.9,134.1c-1.9,0-2.8,0-4.6,0l5.6-11.6
		L260,112l5,0.5l2.6,10l3.7,13.5c-1.7-0.3-3-0.6-4.6-0.7l-1.3-4.2c-3.3-0.5-6.3-0.7-9.4-0.8L253.9,134.1z M257.6,126.5
		c2.4,0.1,4.7,0.4,7,0.7l-1.2-4.7l-1.5-4.8l-2.3,4.8L257.6,126.5z M235.3,116.5l2,18.4l4.8-0.5l-1.9-18.2l7.3-0.5l-0.3-4.1
		c-8.1,0.5-11.5,0.8-19.6,2l0.5,3.9L235.3,116.5z M236.1,365l-1.6,13.7l-6.6-15c-1.5-0.3-2.5-0.7-4.1-0.9l-5.2,22.2
		c1.6,0.4,3.1,0.6,4.8,0.9l2.8-13.6l6.7,15.2c1.5,0.2,3.2,0.7,5,0.7l2.5-22.9C239,365,237.5,365.3,236.1,365z M366.2,317.4
		l-16.5-9.1l-2.1,3.8l19.7,11l7.6-13.6l-3.4-1.8L366.2,317.4z M341.4,320.8l22.4,7.4c-0.5,0.7-0.9,1.3-1.4,2c-0.4,0.5-0.9,1-1.2,1.7
		l-3.9-1.4l-6.1,7.6l2.2,3.5c-0.9,1-1.9,2.2-3.1,3.3l-8.9-14.7l-3.3-5.4L341.4,320.8z M343.9,325.9l2.7,4.2l2.4,4.2l3.3-4.2l0.9-1.1
		L343.9,325.9z M320.4,355.8c1,1.7,1.4,3.6,1.5,5.6c0,1.6-0.3,3.1-1,4.6c-1,2.1-2.6,4-4.8,5.2c-5.3,3.1-12.1,1.2-15.3-4.2
		c-0.1-0.3-0.3-0.7-0.5-1c-0.6-1.4-1-3-1.1-4.6c0.1-4,2.1-7.7,5.6-9.7C310.4,348.7,317.3,350.5,320.4,355.8z M317.9,361.4
		c0-1.3-0.3-2.6-1-3.7c-1.9-3.5-6.3-4.6-9.7-2.6c-2.4,1.3-3.7,3.8-3.7,6.3c0.1,1.2,0.4,2.5,1,3.6c0.2,0.3,0.4,0.7,0.8,1.1
		c2.2,2.6,6,3.2,8.9,1.5c0.8-0.4,1.5-0.9,2-1.5C317.3,364.8,317.9,363.1,317.9,361.4z M328.7,334.7l9.3,10l-15.7-4.6
		c-1.3,1-2.2,1.3-3.3,2.3l13.6,18.3c1.2-0.9,2.4-2,3.5-2.9l-8.3-11l15.8,4.8c1.1-0.9,2.6-2,3.7-3.3l-15.8-16.7
		C330.7,332.5,329.8,333.7,328.7,334.7z M428.9,250.2c0,2.1-0.1,4.2-0.3,5.9l-0.1,0.5l-0.5,0.2c-7.6,4.5-17.4,7.1-27.3,7.4
		c-0.2,1.2-1.3,10.2-1.5,11.4c9.2,2.7,18.1,7.7,24.3,14.1l0.3,0.4v0.4c-0.5,3.5-1.7,8.2-3.1,11.3l-0.2,0.5l-0.5,0.1
		c-8.6,2.5-18.8,2.4-28.2,0.1c-0.5,1.2-3.9,9.4-4.3,10.6c8.2,5.2,15.5,12.4,19.6,20l0.2,0.4l-0.1,0.4c-1.3,3-3.7,7.4-5.8,10.1
		l-0.2,0.4h-0.5c-8.8,0.1-18.6-2.5-27.2-7.3c-0.8,1-6.5,8.6-7.3,9.6c6.8,7,11.9,15.8,14,24.5l0.1,0.5l-0.3,0.3
		c-2,2.7-5.6,6.2-8.2,8.3l-0.3,0.3l-0.6-0.1c-8.5-2.3-17.4-7.4-24.4-14.1c-1,0.8-8.1,6.3-9.2,7.1c4.5,8.3,7.3,17.9,7.3,26.6
		c0,0.3,0,1.2,0,1.2l-0.5,0.3c-2.6,2.1-7,4.6-10.1,5.9l-0.3,0.1l-0.5-0.2c-7.6-4.4-14.9-11.7-19.9-20c-1.2,0.5-9.8,4.2-11,4.7
		c1.2,4.6,1.9,9.5,2,14.2c0,4.8-0.8,9.7-2,14l-0.1,0.4l-0.5,0.3c-2.9,1.2-7.8,2.4-11.2,3l-0.5,0.1l-0.3-0.4
		c-6.6-6.2-11.6-15.1-14.2-24.4c-1.2,0.1-10.1,1.3-11.4,1.6c-0.2,9.7-2.8,19.6-7.5,27.2l-0.3,0.4l-0.5,0.1c-3.1,0.5-8.1,0.5-11.5,0
		l-0.4-0.1l-0.3-0.4c-4.5-7.6-7.2-17.5-7.4-27.2c-1.3-0.1-10.8-1.5-12.1-1.6c-2.6,9.2-7.6,18-14,24.4L210,424l-0.5-0.1
		c-3.5-0.5-8.1-1.9-11.2-3.1l-0.4-0.2l-0.2-0.4c-1.3-4.3-2-9.2-2-14c0-4.7,0.7-9.5,1.9-14.1c-1.2-0.5-9.4-3.8-10.5-4.4
		c-5,8.4-12.3,15.8-20,20l-0.4,0.2l-0.5-0.1c-3.2-1.4-7.4-3.8-10.1-5.9l-0.3-0.3c0,0,0-0.8,0-0.9c0-8.8,2.7-18.4,7.2-26.8
		c-1-0.8-8.6-6.6-9.7-7.3c-7,6.7-15.8,11.8-24.4,14l-0.4,0.1l-0.5-0.3c-2.6-2.1-6-5.5-8.1-8.2l-0.3-0.5l0.1-0.5
		c2.3-8.7,7.4-17.5,14.1-24.3c-0.8-1-6.5-8.5-7.3-9.6c-8.5,4.8-18.4,7.5-27.2,7.3h-0.5l-0.3-0.3c-2.1-2.7-4.5-7.1-5.8-10.2l-0.2-0.5
		l0.2-0.4c4.4-7.8,11.7-14.9,19.9-19.9c-0.5-1.3-4.1-9.6-4.7-10.8c-9.4,2.3-19.6,2.4-28.2,0l-0.4-0.1l-0.3-0.4
		c-1.2-2.9-2.4-7.8-3-11.2l-0.1-0.5l0.3-0.4c6.3-6.4,15-11.4,24.4-14.2c-0.1-1.3-1.5-10.8-1.6-12.1c-9.8-0.1-19.7-2.7-27.4-7.2
		l-0.4-0.3l0-0.5c-0.2-1.6-0.3-3.7-0.3-5.8c0-2.1,0.1-4.1,0.3-5.8l0-0.5l0.4-0.2c7.7-4.5,17.5-7.1,27.4-7.3
		c0.2-1.3,1.4-10.5,1.5-11.8c-9.3-2.7-18.2-7.8-24.5-14.1l-0.3-0.3l0.1-0.5c0.4-3.5,1.7-8.3,3.1-11.2l0.1-0.4l0.5-0.1
		c8.5-2.5,18.8-2.4,28.2-0.1c0.5-1.1,4-9.5,4.5-10.7c-8.3-5-15.6-12.2-20-20l-0.2-0.5l0.2-0.5c1.4-3.1,3.8-7.3,5.8-10l0.3-0.4h0.5
		c8.9-0.1,18.7,2.6,27.2,7.3c0.8-1,6.6-8.8,7.4-9.8c-6.7-7-11.8-15.8-14-24.5l-0.1-0.4l0.2-0.4c2.2-2.7,5.7-6.2,8.3-8.3l0.4-0.3
		l0.4,0.1c8.8,2.2,17.6,7.4,24.5,14.1c1-0.8,7.9-6.1,8.9-6.9c-4.7-8.3-7.4-17.9-7.4-26.5c0-0.3,0-1.3,0-1.3l0.4-0.3
		c2.6-2,6.9-4.5,10.1-5.8l0.3-0.2l0.5,0.2c7.7,4.3,14.9,11.6,19.9,19.9c1.2-0.5,10.2-4.3,11.4-4.8c-1.2-4.6-1.9-9.4-1.8-14.2
		c0-4.9,0.6-9.6,1.9-14l0.1-0.5l0.5-0.1c2.9-1.2,7.7-2.5,11.1-3l0.5-0.1l0.4,0.3c6.4,6.2,11.5,15.1,14.2,24.5
		c1.3-0.1,10.7-1.3,12-1.5c0.2-9.7,2.8-19.5,7.5-27.2l0.2-0.4l0.5-0.1c3.4-0.4,8.3-0.4,11.6,0l0.4,0.1l0.3,0.4
		c4.6,7.7,7.3,17.5,7.3,27.1c1.4,0.3,10.6,1.5,11.9,1.6c2.8-9.4,7.8-18.2,14.2-24.4l0.3-0.3l0.4,0.1c3.5,0.4,8.2,1.7,11.3,3l0.4,0.1
		l0.2,0.5c1.3,4.3,1.9,9,1.9,13.9c-0.1,4.8-0.8,9.6-1.9,14.3c1.2,0.5,10.1,4.2,11.3,4.7c5-8.3,12.1-15.5,19.8-19.9l0.4-0.2l0.5,0.2
		c3.1,1.3,7.4,3.8,10,5.8l0.4,0.2c0,0,0,1,0,1.2c0,8.8-2.7,18.4-7.3,26.6c1,0.8,8.4,6.5,9.5,7.4c6.9-6.8,15.8-11.9,24.5-14.1
		l0.4-0.2l0.4,0.4c2.6,1.9,6.2,5.6,8.2,8.3l0.4,0.4l-0.2,0.4c-2.2,8.7-7.5,17.5-14.1,24.4c0.8,1.1,6.3,8.4,7.2,9.4
		c8.7-4.7,18.4-7.3,27.3-7.2h0.4l0.3,0.4c2.2,2.8,4.6,7,5.8,10l0.3,0.6l-0.3,0.4c-4.4,7.7-11.7,14.8-20,19.9
		c0.5,1.3,3.9,9.6,4.5,10.8c9.3-2.3,19.6-2.4,28.1,0l0.5,0.1l0.2,0.5c1.2,3,2.6,7.7,3,11.3l0.1,0.4l-0.3,0.3
		c-6.2,6.5-15.1,11.5-24.4,14.2c0.2,1.3,1.3,10.4,1.6,11.7c9.8,0.2,19.6,2.8,27.2,7.3l0.5,0.3l0.1,0.5
		C428.8,246.1,428.9,248.1,428.9,250.2z M160,145.8l14.7,16.4c2.1,2.2,4.3,1.9,7.3-0.4c18.6-14.6,42.4-23.2,67.8-23.2
		c25.4,0,49.3,8.6,68,23.2c2.9,2.2,5.1,2.6,7.3,0.4l14.7-16.4c1.7-1.8,1.7-4.3-1.5-7c-24.7-19.2-55.1-31-88.6-31
		c-33.3,0-64.1,11.8-88.4,31.1C158.3,141.5,158.4,144,160,145.8z M161,214.7c-1.6-1-3.3-2.2-4.8-1.6c-1.1,0.3-2,1.6-2.6,3.5
		c-6.9,23.7-6.9,43.7,0,67.1c0.5,1.5,1,3,2.4,3.4c1.1,0.5,2.8,0,5-1.5l45.5-31c1.7-1.1,2.7-2.8,2.7-4.4c0-1.8-1-3.3-2.7-4.5
		L161,214.7z M171,187.6c0.2,1.7,2.1,2.5,3.7,3.3l49.6,24.1c2,0.9,3.8,0.9,5.3,0.2c1.4-0.9,2.3-2.5,2.4-4.6l4-55
		c0.2-2.7-0.2-4.2-1.1-5c-1-0.9-2.6-0.7-4.1-0.4c-23.8,5.7-41.1,15.8-58.2,33.6C171.3,185.2,170.7,186.5,171,187.6z M171.7,313.3
		c0,0.9,0.6,2.1,1.8,3.4c17.1,18,34.4,28,58.1,33.5c1.5,0.5,3,0.7,4.1-0.1c1.1-0.8,1.4-2.5,1.2-5.1c0-0.1-4-55.1-4-55.1
		c-0.2-2.1-1-3.7-2.4-4.5c-1.5-0.9-3.3-0.9-5.3,0l-49.5,24.1c-1.7,0.8-3.6,1.7-3.9,3.3C171.8,313,171.7,313.2,171.7,313.3z
		 M249.8,285.6c19.6,0,35.6-15.9,35.6-35.5c0-19.6-15.9-35.5-35.6-35.6c-19.6,0-35.5,16-35.5,35.6
		C214.3,269.7,230.2,285.6,249.8,285.6z M264.9,349.3c0.8,0.7,2.2,0.9,4.3,0.3c23.7-5.7,41.1-15.7,58-33.5c1-1.2,2.1-2.4,1.8-3.7
		c-0.3-1.3-1.4-2.4-3.7-3.5l-49.7-24.1c-1.9-0.9-3.7-0.9-5.2-0.1c-1.5,0.9-2.3,2.5-2.5,4.7l-4,55
		C263.8,346.1,263.6,348.2,264.9,349.3z M338.9,285.2c1.5,1,3.2,2.1,4.7,1.6c1-0.3,2-1.5,2.5-3.6c7-23.6,7-43.7,0-67
		c-0.4-1.5-1.1-3-2.3-3.5c-1.2-0.4-2.8,0.1-5,1.6l-45.5,31c-1.8,1.2-2.7,2.8-2.7,4.5c0,1.7,0.9,3.3,2.7,4.4L338.9,285.2z
		 M328.9,186.7c0.1-0.9-0.5-2.1-1.8-3.4c-16.9-17.9-34.3-27.9-58.1-33.6c-1.3-0.3-2.9-0.7-3.9,0.3c-1.1,0.9-1.4,2.5-1.2,5l3.9,55.1
		c0.1,2.1,1.1,3.7,2.5,4.6c1.5,0.9,3.4,0.7,5.3-0.2l49.7-24c1.6-0.8,3.4-1.6,3.7-3.3C328.9,187,329,186.9,328.9,186.7z M116.9,285.1
		l21.1-6.1c2-0.6,3.6-2.7,3.5-5.2c-7.6-39.4,2.1-71.3,25.1-96.9c2.3-1.7,2.6-5.1,0.3-7.4L151.6,154c-1.5-1.7-4.2-1.7-6.5,0.7
		c-29.5,31-44.3,78.6-33.4,127.2C112.2,284.2,114.1,285.9,116.9,285.1z M379.6,296.4l-21.2-7.2c-1.1-0.4-4-0.4-5.5,3.3
		c-17.1,41-56.9,69.1-103.1,69.1c-46.2,0-86.7-28.7-103.1-69.8c-1.2-3.1-4.2-3.1-5.3-2.7l-21.1,7.2c-2.3,0.8-3.7,2.9-2.5,5.8
		c20.7,52.8,72.2,90.1,132,90.1c59.8,0,111.5-37.5,132.3-90.3C383.2,299.2,381.9,297.2,379.6,296.4z M355.1,154.4
		c-2.1-2.5-5.5-2.2-6.5-0.4l-15.3,15.4c-2.2,2.3-2,5.8,0.3,7.4c23.1,25.6,32.8,57.4,25.2,96.9c-0.2,2.6,1.5,4.7,3.5,5.2l21.2,6.1
		c2.8,0.8,4.6-0.9,5.2-3.3C399.5,233.2,384.6,185.5,355.1,154.4z M428.9,250.2c0,2.1-0.1,4.2-0.3,5.9l-0.1,0.5l-0.5,0.2
		c-7.6,4.5-17.4,7.1-27.3,7.4c-0.2,1.2-1.3,10.2-1.5,11.4c9.2,2.7,18.1,7.7,24.3,14.1l0.3,0.4v0.4c-0.5,3.5-1.7,8.2-3.1,11.3
		l-0.2,0.5l-0.5,0.1c-8.6,2.5-18.8,2.4-28.2,0.1c-0.5,1.2-3.9,9.4-4.3,10.6c8.2,5.2,15.5,12.4,19.6,20l0.2,0.4l-0.1,0.4
		c-1.3,3-3.7,7.4-5.8,10.1l-0.2,0.4h-0.5c-8.8,0.1-18.6-2.5-27.2-7.3c-0.8,1-6.5,8.6-7.3,9.6c6.8,7,11.9,15.8,14,24.5l0.1,0.5
		l-0.3,0.3c-2,2.7-5.6,6.2-8.2,8.3l-0.3,0.3l-0.6-0.1c-8.5-2.3-17.4-7.4-24.4-14.1c-1,0.8-8.1,6.3-9.2,7.1
		c4.5,8.3,7.3,17.9,7.3,26.6c0,0.3,0,1.2,0,1.2l-0.5,0.3c-2.6,2.1-7,4.6-10.1,5.9l-0.3,0.1l-0.5-0.2c-7.6-4.4-14.9-11.7-19.9-20
		c-1.2,0.5-9.8,4.2-11,4.7c1.2,4.6,1.9,9.5,2,14.2c0,4.8-0.8,9.7-2,14l-0.1,0.4l-0.5,0.3c-2.9,1.2-7.8,2.4-11.2,3l-0.5,0.1l-0.3-0.4
		c-6.6-6.2-11.6-15.1-14.2-24.4c-1.2,0.1-10.1,1.3-11.4,1.6c-0.2,9.7-2.8,19.6-7.5,27.2l-0.3,0.4l-0.5,0.1c-3.1,0.5-8.1,0.5-11.5,0
		l-0.4-0.1l-0.3-0.4c-4.5-7.6-7.2-17.5-7.4-27.2c-1.3-0.1-10.8-1.5-12.1-1.6c-2.6,9.2-7.6,18-14,24.4L210,424l-0.5-0.1
		c-3.5-0.5-8.1-1.9-11.2-3.1l-0.4-0.2l-0.2-0.4c-1.3-4.3-2-9.2-2-14c0-4.7,0.7-9.5,1.9-14.1c-1.2-0.5-9.4-3.8-10.5-4.4
		c-5,8.4-12.3,15.8-20,20l-0.4,0.2l-0.5-0.1c-3.2-1.4-7.4-3.8-10.1-5.9l-0.3-0.3c0,0,0-0.8,0-0.9c0-8.8,2.7-18.4,7.2-26.8
		c-1-0.8-8.6-6.6-9.7-7.3c-7,6.7-15.8,11.8-24.4,14l-0.4,0.1l-0.5-0.3c-2.6-2.1-6-5.5-8.1-8.2l-0.3-0.5l0.1-0.5
		c2.3-8.7,7.4-17.5,14.1-24.3c-0.8-1-6.5-8.5-7.3-9.6c-8.5,4.8-18.4,7.5-27.2,7.3h-0.5l-0.3-0.3c-2.1-2.7-4.5-7.1-5.8-10.2l-0.2-0.5
		l0.2-0.4c4.4-7.8,11.7-14.9,19.9-19.9c-0.5-1.3-4.1-9.6-4.7-10.8c-9.4,2.3-19.6,2.4-28.2,0l-0.4-0.1l-0.3-0.4
		c-1.2-2.9-2.4-7.8-3-11.2l-0.1-0.5l0.3-0.4c6.3-6.4,15-11.4,24.4-14.2c-0.1-1.3-1.5-10.8-1.6-12.1c-9.8-0.1-19.7-2.7-27.4-7.2
		l-0.4-0.3l0-0.5c-0.2-1.6-0.3-3.7-0.3-5.8c0-2.1,0.1-4.1,0.3-5.8l0-0.5l0.4-0.2c7.7-4.5,17.5-7.1,27.4-7.3
		c0.2-1.3,1.4-10.5,1.5-11.8c-9.3-2.7-18.2-7.8-24.5-14.1l-0.3-0.3l0.1-0.5c0.4-3.5,1.7-8.3,3.1-11.2l0.1-0.4l0.5-0.1
		c8.5-2.5,18.8-2.4,28.2-0.1c0.5-1.1,4-9.5,4.5-10.7c-8.3-5-15.6-12.2-20-20l-0.2-0.5l0.2-0.5c1.4-3.1,3.8-7.3,5.8-10l0.3-0.4h0.5
		c8.9-0.1,18.7,2.6,27.2,7.3c0.8-1,6.6-8.8,7.4-9.8c-6.7-7-11.8-15.8-14-24.5l-0.1-0.4l0.2-0.4c2.2-2.7,5.7-6.2,8.3-8.3l0.4-0.3
		l0.4,0.1c8.8,2.2,17.6,7.4,24.5,14.1c1-0.8,7.9-6.1,8.9-6.9c-4.7-8.3-7.4-17.9-7.4-26.5c0-0.3,0-1.3,0-1.3l0.4-0.3
		c2.6-2,6.9-4.5,10.1-5.8l0.3-0.2l0.5,0.2c7.7,4.3,14.9,11.6,19.9,19.9c1.2-0.5,10.2-4.3,11.4-4.8c-1.2-4.6-1.9-9.4-1.8-14.2
		c0-4.9,0.6-9.6,1.9-14l0.1-0.5l0.5-0.1c2.9-1.2,7.7-2.5,11.1-3l0.5-0.1l0.4,0.3c6.4,6.2,11.5,15.1,14.2,24.5
		c1.3-0.1,10.7-1.3,12-1.5c0.2-9.7,2.8-19.5,7.5-27.2l0.2-0.4l0.5-0.1c3.4-0.4,8.3-0.4,11.6,0l0.4,0.1l0.3,0.4
		c4.6,7.7,7.3,17.5,7.3,27.1c1.4,0.3,10.6,1.5,11.9,1.6c2.8-9.4,7.8-18.2,14.2-24.4l0.3-0.3l0.4,0.1c3.5,0.4,8.2,1.7,11.3,3l0.4,0.1
		l0.2,0.5c1.3,4.3,1.9,9,1.9,13.9c-0.1,4.8-0.8,9.6-1.9,14.3c1.2,0.5,10.1,4.2,11.3,4.7c5-8.3,12.1-15.5,19.8-19.9l0.4-0.2l0.5,0.2
		c3.1,1.3,7.4,3.8,10,5.8l0.4,0.2c0,0,0,1,0,1.2c0,8.8-2.7,18.4-7.3,26.6c1,0.8,8.4,6.5,9.5,7.4c6.9-6.8,15.8-11.9,24.5-14.1
		l0.4-0.2l0.4,0.4c2.6,1.9,6.2,5.6,8.2,8.3l0.4,0.4l-0.2,0.4c-2.2,8.7-7.5,17.5-14.1,24.4c0.8,1.1,6.3,8.4,7.2,9.4
		c8.7-4.7,18.4-7.3,27.3-7.2h0.4l0.3,0.4c2.2,2.8,4.6,7,5.8,10l0.3,0.6l-0.3,0.4c-4.4,7.7-11.7,14.8-20,19.9
		c0.5,1.3,3.9,9.6,4.5,10.8c9.3-2.3,19.6-2.4,28.1,0l0.5,0.1l0.2,0.5c1.2,3,2.6,7.7,3,11.3l0.1,0.4l-0.3,0.3
		c-6.2,6.5-15.1,11.5-24.4,14.2c0.2,1.3,1.3,10.4,1.6,11.7c9.8,0.2,19.6,2.8,27.2,7.3l0.5,0.3l0.1,0.5
		C428.8,246.1,428.9,248.1,428.9,250.2z M160,145.8l14.7,16.4c2.1,2.2,4.3,1.9,7.3-0.4c18.6-14.6,42.4-23.2,67.8-23.2
		c25.4,0,49.3,8.6,68,23.2c2.9,2.2,5.1,2.6,7.3,0.4l14.7-16.4c1.7-1.8,1.7-4.3-1.5-7c-24.7-19.2-55.1-31-88.6-31
		c-33.3,0-64.1,11.8-88.4,31.1C158.3,141.5,158.4,144,160,145.8z M161,214.7c-1.6-1-3.3-2.2-4.8-1.6c-1.1,0.3-2,1.6-2.6,3.5
		c-6.9,23.7-6.9,43.7,0,67.1c0.5,1.5,1,3,2.4,3.4c1.1,0.5,2.8,0,5-1.5l45.5-31c1.7-1.1,2.7-2.8,2.7-4.4c0-1.8-1-3.3-2.7-4.5
		L161,214.7z M171,187.6c0.2,1.7,2.1,2.5,3.7,3.3l49.6,24.1c2,0.9,3.8,0.9,5.3,0.2c1.4-0.9,2.3-2.5,2.4-4.6l4-55
		c0.2-2.7-0.2-4.2-1.1-5c-1-0.9-2.6-0.7-4.1-0.4c-23.8,5.7-41.1,15.8-58.2,33.6C171.3,185.2,170.7,186.5,171,187.6z M171.7,313.3
		c0,0.9,0.6,2.1,1.8,3.4c17.1,18,34.4,28,58.1,33.5c1.5,0.5,3,0.7,4.1-0.1c1.1-0.8,1.4-2.5,1.2-5.1c0-0.1-4-55.1-4-55.1
		c-0.2-2.1-1-3.7-2.4-4.5c-1.5-0.9-3.3-0.9-5.3,0l-49.5,24.1c-1.7,0.8-3.6,1.7-3.9,3.3C171.8,313,171.7,313.2,171.7,313.3z
		 M249.8,285.6c19.6,0,35.6-15.9,35.6-35.5c0-19.6-15.9-35.5-35.6-35.6c-19.6,0-35.5,16-35.5,35.6
		C214.3,269.7,230.2,285.6,249.8,285.6z M264.9,349.3c0.8,0.7,2.2,0.9,4.3,0.3c23.7-5.7,41.1-15.7,58-33.5c1-1.2,2.1-2.4,1.8-3.7
		c-0.3-1.3-1.4-2.4-3.7-3.5l-49.7-24.1c-1.9-0.9-3.7-0.9-5.2-0.1c-1.5,0.9-2.3,2.5-2.5,4.7l-4,55
		C263.8,346.1,263.6,348.2,264.9,349.3z M338.9,285.2c1.5,1,3.2,2.1,4.7,1.6c1-0.3,2-1.5,2.5-3.6c7-23.6,7-43.7,0-67
		c-0.4-1.5-1.1-3-2.3-3.5c-1.2-0.4-2.8,0.1-5,1.6l-45.5,31c-1.8,1.2-2.7,2.8-2.7,4.5c0,1.7,0.9,3.3,2.7,4.4L338.9,285.2z
		 M328.9,186.7c0.1-0.9-0.5-2.1-1.8-3.4c-16.9-17.9-34.3-27.9-58.1-33.6c-1.3-0.3-2.9-0.7-3.9,0.3c-1.1,0.9-1.4,2.5-1.2,5l3.9,55.1
		c0.1,2.1,1.1,3.7,2.5,4.6c1.5,0.9,3.4,0.7,5.3-0.2l49.7-24c1.6-0.8,3.4-1.6,3.7-3.3C328.9,187,329,186.9,328.9,186.7z M116.9,285.1
		l21.1-6.1c2-0.6,3.6-2.7,3.5-5.2c-7.6-39.4,2.1-71.3,25.1-96.9c2.3-1.7,2.6-5.1,0.3-7.4L151.6,154c-1.5-1.7-4.2-1.7-6.5,0.7
		c-29.5,31-44.3,78.6-33.4,127.2C112.2,284.2,114.1,285.9,116.9,285.1z M379.6,296.4l-21.2-7.2c-1.1-0.4-4-0.4-5.5,3.3
		c-17.1,41-56.9,69.1-103.1,69.1c-46.2,0-86.7-28.7-103.1-69.8c-1.2-3.1-4.2-3.1-5.3-2.7l-21.1,7.2c-2.3,0.8-3.7,2.9-2.5,5.8
		c20.7,52.8,72.2,90.1,132,90.1c59.8,0,111.5-37.5,132.3-90.3C383.2,299.2,381.9,297.2,379.6,296.4z M355.1,154.4
		c-2.1-2.5-5.5-2.2-6.5-0.4l-15.3,15.4c-2.2,2.3-2,5.8,0.3,7.4c23.1,25.6,32.8,57.4,25.2,96.9c-0.2,2.6,1.5,4.7,3.5,5.2l21.2,6.1
		c2.8,0.8,4.6-0.9,5.2-3.3C399.5,233.2,384.6,185.5,355.1,154.4z M428.9,250.2c0,2.1-0.1,4.2-0.3,5.9l-0.1,0.5l-0.5,0.2
		c-7.6,4.5-17.4,7.1-27.3,7.4c-0.2,1.2-1.3,10.2-1.5,11.4c9.2,2.7,18.1,7.7,24.3,14.1l0.3,0.4v0.4c-0.5,3.5-1.7,8.2-3.1,11.3
		l-0.2,0.5l-0.5,0.1c-8.6,2.5-18.8,2.4-28.2,0.1c-0.5,1.2-3.9,9.4-4.3,10.6c8.2,5.2,15.5,12.4,19.6,20l0.2,0.4l-0.1,0.4
		c-1.3,3-3.7,7.4-5.8,10.1l-0.2,0.4h-0.5c-8.8,0.1-18.6-2.5-27.2-7.3c-0.8,1-6.5,8.6-7.3,9.6c6.8,7,11.9,15.8,14,24.5l0.1,0.5
		l-0.3,0.3c-2,2.7-5.6,6.2-8.2,8.3l-0.3,0.3l-0.6-0.1c-8.5-2.3-17.4-7.4-24.4-14.1c-1,0.8-8.1,6.3-9.2,7.1
		c4.5,8.3,7.3,17.9,7.3,26.6c0,0.3,0,1.2,0,1.2l-0.5,0.3c-2.6,2.1-7,4.6-10.1,5.9l-0.3,0.1l-0.5-0.2c-7.6-4.4-14.9-11.7-19.9-20
		c-1.2,0.5-9.8,4.2-11,4.7c1.2,4.6,1.9,9.5,2,14.2c0,4.8-0.8,9.7-2,14l-0.1,0.4l-0.5,0.3c-2.9,1.2-7.8,2.4-11.2,3l-0.5,0.1l-0.3-0.4
		c-6.6-6.2-11.6-15.1-14.2-24.4c-1.2,0.1-10.1,1.3-11.4,1.6c-0.2,9.7-2.8,19.6-7.5,27.2l-0.3,0.4l-0.5,0.1c-3.1,0.5-8.1,0.5-11.5,0
		l-0.4-0.1l-0.3-0.4c-4.5-7.6-7.2-17.5-7.4-27.2c-1.3-0.1-10.8-1.5-12.1-1.6c-2.6,9.2-7.6,18-14,24.4L210,424l-0.5-0.1
		c-3.5-0.5-8.1-1.9-11.2-3.1l-0.4-0.2l-0.2-0.4c-1.3-4.3-2-9.2-2-14c0-4.7,0.7-9.5,1.9-14.1c-1.2-0.5-9.4-3.8-10.5-4.4
		c-5,8.4-12.3,15.8-20,20l-0.4,0.2l-0.5-0.1c-3.2-1.4-7.4-3.8-10.1-5.9l-0.3-0.3c0,0,0-0.8,0-0.9c0-8.8,2.7-18.4,7.2-26.8
		c-1-0.8-8.6-6.6-9.7-7.3c-7,6.7-15.8,11.8-24.4,14l-0.4,0.1l-0.5-0.3c-2.6-2.1-6-5.5-8.1-8.2l-0.3-0.5l0.1-0.5
		c2.3-8.7,7.4-17.5,14.1-24.3c-0.8-1-6.5-8.5-7.3-9.6c-8.5,4.8-18.4,7.5-27.2,7.3h-0.5l-0.3-0.3c-2.1-2.7-4.5-7.1-5.8-10.2l-0.2-0.5
		l0.2-0.4c4.4-7.8,11.7-14.9,19.9-19.9c-0.5-1.3-4.1-9.6-4.7-10.8c-9.4,2.3-19.6,2.4-28.2,0l-0.4-0.1l-0.3-0.4
		c-1.2-2.9-2.4-7.8-3-11.2l-0.1-0.5l0.3-0.4c6.3-6.4,15-11.4,24.4-14.2c-0.1-1.3-1.5-10.8-1.6-12.1c-9.8-0.1-19.7-2.7-27.4-7.2
		l-0.4-0.3l0-0.5c-0.2-1.6-0.3-3.7-0.3-5.8c0-2.1,0.1-4.1,0.3-5.8l0-0.5l0.4-0.2c7.7-4.5,17.5-7.1,27.4-7.3
		c0.2-1.3,1.4-10.5,1.5-11.8c-9.3-2.7-18.2-7.8-24.5-14.1l-0.3-0.3l0.1-0.5c0.4-3.5,1.7-8.3,3.1-11.2l0.1-0.4l0.5-0.1
		c8.5-2.5,18.8-2.4,28.2-0.1c0.5-1.1,4-9.5,4.5-10.7c-8.3-5-15.6-12.2-20-20l-0.2-0.5l0.2-0.5c1.4-3.1,3.8-7.3,5.8-10l0.3-0.4h0.5
		c8.9-0.1,18.7,2.6,27.2,7.3c0.8-1,6.6-8.8,7.4-9.8c-6.7-7-11.8-15.8-14-24.5l-0.1-0.4l0.2-0.4c2.2-2.7,5.7-6.2,8.3-8.3l0.4-0.3
		l0.4,0.1c8.8,2.2,17.6,7.4,24.5,14.1c1-0.8,7.9-6.1,8.9-6.9c-4.7-8.3-7.4-17.9-7.4-26.5c0-0.3,0-1.3,0-1.3l0.4-0.3
		c2.6-2,6.9-4.5,10.1-5.8l0.3-0.2l0.5,0.2c7.7,4.3,14.9,11.6,19.9,19.9c1.2-0.5,10.2-4.3,11.4-4.8c-1.2-4.6-1.9-9.4-1.8-14.2
		c0-4.9,0.6-9.6,1.9-14l0.1-0.5l0.5-0.1c2.9-1.2,7.7-2.5,11.1-3l0.5-0.1l0.4,0.3c6.4,6.2,11.5,15.1,14.2,24.5
		c1.3-0.1,10.7-1.3,12-1.5c0.2-9.7,2.8-19.5,7.5-27.2l0.2-0.4l0.5-0.1c3.4-0.4,8.3-0.4,11.6,0l0.4,0.1l0.3,0.4
		c4.6,7.7,7.3,17.5,7.3,27.1c1.4,0.3,10.6,1.5,11.9,1.6c2.8-9.4,7.8-18.2,14.2-24.4l0.3-0.3l0.4,0.1c3.5,0.4,8.2,1.7,11.3,3l0.4,0.1
		l0.2,0.5c1.3,4.3,1.9,9,1.9,13.9c-0.1,4.8-0.8,9.6-1.9,14.3c1.2,0.5,10.1,4.2,11.3,4.7c5-8.3,12.1-15.5,19.8-19.9l0.4-0.2l0.5,0.2
		c3.1,1.3,7.4,3.8,10,5.8l0.4,0.2c0,0,0,1,0,1.2c0,8.8-2.7,18.4-7.3,26.6c1,0.8,8.4,6.5,9.5,7.4c6.9-6.8,15.8-11.9,24.5-14.1
		l0.4-0.2l0.4,0.4c2.6,1.9,6.2,5.6,8.2,8.3l0.4,0.4l-0.2,0.4c-2.2,8.7-7.5,17.5-14.1,24.4c0.8,1.1,6.3,8.4,7.2,9.4
		c8.7-4.7,18.4-7.3,27.3-7.2h0.4l0.3,0.4c2.2,2.8,4.6,7,5.8,10l0.3,0.6l-0.3,0.4c-4.4,7.7-11.7,14.8-20,19.9
		c0.5,1.3,3.9,9.6,4.5,10.8c9.3-2.3,19.6-2.4,28.1,0l0.5,0.1l0.2,0.5c1.2,3,2.6,7.7,3,11.3l0.1,0.4l-0.3,0.3
		c-6.2,6.5-15.1,11.5-24.4,14.2c0.2,1.3,1.3,10.4,1.6,11.7c9.8,0.2,19.6,2.8,27.2,7.3l0.5,0.3l0.1,0.5
		C428.8,246.1,428.9,248.1,428.9,250.2z M160,145.8l14.7,16.4c2.1,2.2,4.3,1.9,7.3-0.4c18.6-14.6,42.4-23.2,67.8-23.2
		c25.4,0,49.3,8.6,68,23.2c2.9,2.2,5.1,2.6,7.3,0.4l14.7-16.4c1.7-1.8,1.7-4.3-1.5-7c-24.7-19.2-55.1-31-88.6-31
		c-33.3,0-64.1,11.8-88.4,31.1C158.3,141.5,158.4,144,160,145.8z M161,214.7c-1.6-1-3.3-2.2-4.8-1.6c-1.1,0.3-2,1.6-2.6,3.5
		c-6.9,23.7-6.9,43.7,0,67.1c0.5,1.5,1,3,2.4,3.4c1.1,0.5,2.8,0,5-1.5l45.5-31c1.7-1.1,2.7-2.8,2.7-4.4c0-1.8-1-3.3-2.7-4.5
		L161,214.7z M171,187.6c0.2,1.7,2.1,2.5,3.7,3.3l49.6,24.1c2,0.9,3.8,0.9,5.3,0.2c1.4-0.9,2.3-2.5,2.4-4.6l4-55
		c0.2-2.7-0.2-4.2-1.1-5c-1-0.9-2.6-0.7-4.1-0.4c-23.8,5.7-41.1,15.8-58.2,33.6C171.3,185.2,170.7,186.5,171,187.6z M171.7,313.3
		c0,0.9,0.6,2.1,1.8,3.4c17.1,18,34.4,28,58.1,33.5c1.5,0.5,3,0.7,4.1-0.1c1.1-0.8,1.4-2.5,1.2-5.1c0-0.1-4-55.1-4-55.1
		c-0.2-2.1-1-3.7-2.4-4.5c-1.5-0.9-3.3-0.9-5.3,0l-49.5,24.1c-1.7,0.8-3.6,1.7-3.9,3.3C171.8,313,171.7,313.2,171.7,313.3z
		 M249.8,285.6c19.6,0,35.6-15.9,35.6-35.5c0-19.6-15.9-35.5-35.6-35.6c-19.6,0-35.5,16-35.5,35.6
		C214.3,269.7,230.2,285.6,249.8,285.6z M264.9,349.3c0.8,0.7,2.2,0.9,4.3,0.3c23.7-5.7,41.1-15.7,58-33.5c1-1.2,2.1-2.4,1.8-3.7
		c-0.3-1.3-1.4-2.4-3.7-3.5l-49.7-24.1c-1.9-0.9-3.7-0.9-5.2-0.1c-1.5,0.9-2.3,2.5-2.5,4.7l-4,55
		C263.8,346.1,263.6,348.2,264.9,349.3z M338.9,285.2c1.5,1,3.2,2.1,4.7,1.6c1-0.3,2-1.5,2.5-3.6c7-23.6,7-43.7,0-67
		c-0.4-1.5-1.1-3-2.3-3.5c-1.2-0.4-2.8,0.1-5,1.6l-45.5,31c-1.8,1.2-2.7,2.8-2.7,4.5c0,1.7,0.9,3.3,2.7,4.4L338.9,285.2z
		 M328.9,186.7c0.1-0.9-0.5-2.1-1.8-3.4c-16.9-17.9-34.3-27.9-58.1-33.6c-1.3-0.3-2.9-0.7-3.9,0.3c-1.1,0.9-1.4,2.5-1.2,5l3.9,55.1
		c0.1,2.1,1.1,3.7,2.5,4.6c1.5,0.9,3.4,0.7,5.3-0.2l49.7-24c1.6-0.8,3.4-1.6,3.7-3.3C328.9,187,329,186.9,328.9,186.7z M116.9,285.1
		l21.1-6.1c2-0.6,3.6-2.7,3.5-5.2c-7.6-39.4,2.1-71.3,25.1-96.9c2.3-1.7,2.6-5.1,0.3-7.4L151.6,154c-1.5-1.7-4.2-1.7-6.5,0.7
		c-29.5,31-44.3,78.6-33.4,127.2C112.2,284.2,114.1,285.9,116.9,285.1z M379.6,296.4l-21.2-7.2c-1.1-0.4-4-0.4-5.5,3.3
		c-17.1,41-56.9,69.1-103.1,69.1c-46.2,0-86.7-28.7-103.1-69.8c-1.2-3.1-4.2-3.1-5.3-2.7l-21.1,7.2c-2.3,0.8-3.7,2.9-2.5,5.8
		c20.7,52.8,72.2,90.1,132,90.1c59.8,0,111.5-37.5,132.3-90.3C383.2,299.2,381.9,297.2,379.6,296.4z M355.1,154.4
		c-2.1-2.5-5.5-2.2-6.5-0.4l-15.3,15.4c-2.2,2.3-2,5.8,0.3,7.4c23.1,25.6,32.8,57.4,25.2,96.9c-0.2,2.6,1.5,4.7,3.5,5.2l21.2,6.1
		c2.8,0.8,4.6-0.9,5.2-3.3C399.5,233.2,384.6,185.5,355.1,154.4z M428.9,250.2c0,2.1-0.1,4.2-0.3,5.9l-0.1,0.5l-0.5,0.2
		c-7.6,4.5-17.4,7.1-27.3,7.4c-0.2,1.2-1.3,10.2-1.5,11.4c9.2,2.7,18.1,7.7,24.3,14.1l0.3,0.4v0.4c-0.5,3.5-1.7,8.2-3.1,11.3
		l-0.2,0.5l-0.5,0.1c-8.6,2.5-18.8,2.4-28.2,0.1c-0.5,1.2-3.9,9.4-4.3,10.6c8.2,5.2,15.5,12.4,19.6,20l0.2,0.4l-0.1,0.4
		c-1.3,3-3.7,7.4-5.8,10.1l-0.2,0.4h-0.5c-8.8,0.1-18.6-2.5-27.2-7.3c-0.8,1-6.5,8.6-7.3,9.6c6.8,7,11.9,15.8,14,24.5l0.1,0.5
		l-0.3,0.3c-2,2.7-5.6,6.2-8.2,8.3l-0.3,0.3l-0.6-0.1c-8.5-2.3-17.4-7.4-24.4-14.1c-1,0.8-8.1,6.3-9.2,7.1
		c4.5,8.3,7.3,17.9,7.3,26.6c0,0.3,0,1.2,0,1.2l-0.5,0.3c-2.6,2.1-7,4.6-10.1,5.9l-0.3,0.1l-0.5-0.2c-7.6-4.4-14.9-11.7-19.9-20
		c-1.2,0.5-9.8,4.2-11,4.7c1.2,4.6,1.9,9.5,2,14.2c0,4.8-0.8,9.7-2,14l-0.1,0.4l-0.5,0.3c-2.9,1.2-7.8,2.4-11.2,3l-0.5,0.1l-0.3-0.4
		c-6.6-6.2-11.6-15.1-14.2-24.4c-1.2,0.1-10.1,1.3-11.4,1.6c-0.2,9.7-2.8,19.6-7.5,27.2l-0.3,0.4l-0.5,0.1c-3.1,0.5-8.1,0.5-11.5,0
		l-0.4-0.1l-0.3-0.4c-4.5-7.6-7.2-17.5-7.4-27.2c-1.3-0.1-10.8-1.5-12.1-1.6c-2.6,9.2-7.6,18-14,24.4L210,424l-0.5-0.1
		c-3.5-0.5-8.1-1.9-11.2-3.1l-0.4-0.2l-0.2-0.4c-1.3-4.3-2-9.2-2-14c0-4.7,0.7-9.5,1.9-14.1c-1.2-0.5-9.4-3.8-10.5-4.4
		c-5,8.4-12.3,15.8-20,20l-0.4,0.2l-0.5-0.1c-3.2-1.4-7.4-3.8-10.1-5.9l-0.3-0.3c0,0,0-0.8,0-0.9c0-8.8,2.7-18.4,7.2-26.8
		c-1-0.8-8.6-6.6-9.7-7.3c-7,6.7-15.8,11.8-24.4,14l-0.4,0.1l-0.5-0.3c-2.6-2.1-6-5.5-8.1-8.2l-0.3-0.5l0.1-0.5
		c2.3-8.7,7.4-17.5,14.1-24.3c-0.8-1-6.5-8.5-7.3-9.6c-8.5,4.8-18.4,7.5-27.2,7.3h-0.5l-0.3-0.3c-2.1-2.7-4.5-7.1-5.8-10.2l-0.2-0.5
		l0.2-0.4c4.4-7.8,11.7-14.9,19.9-19.9c-0.5-1.3-4.1-9.6-4.7-10.8c-9.4,2.3-19.6,2.4-28.2,0l-0.4-0.1l-0.3-0.4
		c-1.2-2.9-2.4-7.8-3-11.2l-0.1-0.5l0.3-0.4c6.3-6.4,15-11.4,24.4-14.2c-0.1-1.3-1.5-10.8-1.6-12.1c-9.8-0.1-19.7-2.7-27.4-7.2
		l-0.4-0.3l0-0.5c-0.2-1.6-0.3-3.7-0.3-5.8c0-2.1,0.1-4.1,0.3-5.8l0-0.5l0.4-0.2c7.7-4.5,17.5-7.1,27.4-7.3
		c0.2-1.3,1.4-10.5,1.5-11.8c-9.3-2.7-18.2-7.8-24.5-14.1l-0.3-0.3l0.1-0.5c0.4-3.5,1.7-8.3,3.1-11.2l0.1-0.4l0.5-0.1
		c8.5-2.5,18.8-2.4,28.2-0.1c0.5-1.1,4-9.5,4.5-10.7c-8.3-5-15.6-12.2-20-20l-0.2-0.5l0.2-0.5c1.4-3.1,3.8-7.3,5.8-10l0.3-0.4h0.5
		c8.9-0.1,18.7,2.6,27.2,7.3c0.8-1,6.6-8.8,7.4-9.8c-6.7-7-11.8-15.8-14-24.5l-0.1-0.4l0.2-0.4c2.2-2.7,5.7-6.2,8.3-8.3l0.4-0.3
		l0.4,0.1c8.8,2.2,17.6,7.4,24.5,14.1c1-0.8,7.9-6.1,8.9-6.9c-4.7-8.3-7.4-17.9-7.4-26.5c0-0.3,0-1.3,0-1.3l0.4-0.3
		c2.6-2,6.9-4.5,10.1-5.8l0.3-0.2l0.5,0.2c7.7,4.3,14.9,11.6,19.9,19.9c1.2-0.5,10.2-4.3,11.4-4.8c-1.2-4.6-1.9-9.4-1.8-14.2
		c0-4.9,0.6-9.6,1.9-14l0.1-0.5l0.5-0.1c2.9-1.2,7.7-2.5,11.1-3l0.5-0.1l0.4,0.3c6.4,6.2,11.5,15.1,14.2,24.5
		c1.3-0.1,10.7-1.3,12-1.5c0.2-9.7,2.8-19.5,7.5-27.2l0.2-0.4l0.5-0.1c3.4-0.4,8.3-0.4,11.6,0l0.4,0.1l0.3,0.4
		c4.6,7.7,7.3,17.5,7.3,27.1c1.4,0.3,10.6,1.5,11.9,1.6c2.8-9.4,7.8-18.2,14.2-24.4l0.3-0.3l0.4,0.1c3.5,0.4,8.2,1.7,11.3,3l0.4,0.1
		l0.2,0.5c1.3,4.3,1.9,9,1.9,13.9c-0.1,4.8-0.8,9.6-1.9,14.3c1.2,0.5,10.1,4.2,11.3,4.7c5-8.3,12.1-15.5,19.8-19.9l0.4-0.2l0.5,0.2
		c3.1,1.3,7.4,3.8,10,5.8l0.4,0.2c0,0,0,1,0,1.2c0,8.8-2.7,18.4-7.3,26.6c1,0.8,8.4,6.5,9.5,7.4c6.9-6.8,15.8-11.9,24.5-14.1
		l0.4-0.2l0.4,0.4c2.6,1.9,6.2,5.6,8.2,8.3l0.4,0.4l-0.2,0.4c-2.2,8.7-7.5,17.5-14.1,24.4c0.8,1.1,6.3,8.4,7.2,9.4
		c8.7-4.7,18.4-7.3,27.3-7.2h0.4l0.3,0.4c2.2,2.8,4.6,7,5.8,10l0.3,0.6l-0.3,0.4c-4.4,7.7-11.7,14.8-20,19.9
		c0.5,1.3,3.9,9.6,4.5,10.8c9.3-2.3,19.6-2.4,28.1,0l0.5,0.1l0.2,0.5c1.2,3,2.6,7.7,3,11.3l0.1,0.4l-0.3,0.3
		c-6.2,6.5-15.1,11.5-24.4,14.2c0.2,1.3,1.3,10.4,1.6,11.7c9.8,0.2,19.6,2.8,27.2,7.3l0.5,0.3l0.1,0.5
		C428.8,246.1,428.9,248.1,428.9,250.2z M160,145.8l14.7,16.4c2.1,2.2,4.3,1.9,7.3-0.4c18.6-14.6,42.4-23.2,67.8-23.2
		c25.4,0,49.3,8.6,68,23.2c2.9,2.2,5.1,2.6,7.3,0.4l14.7-16.4c1.7-1.8,1.7-4.3-1.5-7c-24.7-19.2-55.1-31-88.6-31
		c-33.3,0-64.1,11.8-88.4,31.1C158.3,141.5,158.4,144,160,145.8z M161,214.7c-1.6-1-3.3-2.2-4.8-1.6c-1.1,0.3-2,1.6-2.6,3.5
		c-6.9,23.7-6.9,43.7,0,67.1c0.5,1.5,1,3,2.4,3.4c1.1,0.5,2.8,0,5-1.5l45.5-31c1.7-1.1,2.7-2.8,2.7-4.4c0-1.8-1-3.3-2.7-4.5
		L161,214.7z M171,187.6c0.2,1.7,2.1,2.5,3.7,3.3l49.6,24.1c2,0.9,3.8,0.9,5.3,0.2c1.4-0.9,2.3-2.5,2.4-4.6l4-55
		c0.2-2.7-0.2-4.2-1.1-5c-1-0.9-2.6-0.7-4.1-0.4c-23.8,5.7-41.1,15.8-58.2,33.6C171.3,185.2,170.7,186.5,171,187.6z M171.7,313.3
		c0,0.9,0.6,2.1,1.8,3.4c17.1,18,34.4,28,58.1,33.5c1.5,0.5,3,0.7,4.1-0.1c1.1-0.8,1.4-2.5,1.2-5.1c0-0.1-4-55.1-4-55.1
		c-0.2-2.1-1-3.7-2.4-4.5c-1.5-0.9-3.3-0.9-5.3,0l-49.5,24.1c-1.7,0.8-3.6,1.7-3.9,3.3C171.8,313,171.7,313.2,171.7,313.3z
		 M249.8,285.6c19.6,0,35.6-15.9,35.6-35.5c0-19.6-15.9-35.5-35.6-35.6c-19.6,0-35.5,16-35.5,35.6
		C214.3,269.7,230.2,285.6,249.8,285.6z M264.9,349.3c0.8,0.7,2.2,0.9,4.3,0.3c23.7-5.7,41.1-15.7,58-33.5c1-1.2,2.1-2.4,1.8-3.7
		c-0.3-1.3-1.4-2.4-3.7-3.5l-49.7-24.1c-1.9-0.9-3.7-0.9-5.2-0.1c-1.5,0.9-2.3,2.5-2.5,4.7l-4,55
		C263.8,346.1,263.6,348.2,264.9,349.3z M338.9,285.2c1.5,1,3.2,2.1,4.7,1.6c1-0.3,2-1.5,2.5-3.6c7-23.6,7-43.7,0-67
		c-0.4-1.5-1.1-3-2.3-3.5c-1.2-0.4-2.8,0.1-5,1.6l-45.5,31c-1.8,1.2-2.7,2.8-2.7,4.5c0,1.7,0.9,3.3,2.7,4.4L338.9,285.2z
		 M328.9,186.7c0.1-0.9-0.5-2.1-1.8-3.4c-16.9-17.9-34.3-27.9-58.1-33.6c-1.3-0.3-2.9-0.7-3.9,0.3c-1.1,0.9-1.4,2.5-1.2,5l3.9,55.1
		c0.1,2.1,1.1,3.7,2.5,4.6c1.5,0.9,3.4,0.7,5.3-0.2l49.7-24c1.6-0.8,3.4-1.6,3.7-3.3C328.9,187,329,186.9,328.9,186.7z M116.9,285.1
		l21.1-6.1c2-0.6,3.6-2.7,3.5-5.2c-7.6-39.4,2.1-71.3,25.1-96.9c2.3-1.7,2.6-5.1,0.3-7.4L151.6,154c-1.5-1.7-4.2-1.7-6.5,0.7
		c-29.5,31-44.3,78.6-33.4,127.2C112.2,284.2,114.1,285.9,116.9,285.1z M379.6,296.4l-21.2-7.2c-1.1-0.4-4-0.4-5.5,3.3
		c-17.1,41-56.9,69.1-103.1,69.1c-46.2,0-86.7-28.7-103.1-69.8c-1.2-3.1-4.2-3.1-5.3-2.7l-21.1,7.2c-2.3,0.8-3.7,2.9-2.5,5.8
		c20.7,52.8,72.2,90.1,132,90.1c59.8,0,111.5-37.5,132.3-90.3C383.2,299.2,381.9,297.2,379.6,296.4z M355.1,154.4
		c-2.1-2.5-5.5-2.2-6.5-0.4l-15.3,15.4c-2.2,2.3-2,5.8,0.3,7.4c23.1,25.6,32.8,57.4,25.2,96.9c-0.2,2.6,1.5,4.7,3.5,5.2l21.2,6.1
		c2.8,0.8,4.6-0.9,5.2-3.3C399.5,233.2,384.6,185.5,355.1,154.4z M305.8,148.7l4.9-9.4l13.1-6.1c-1.4-1-2.9-1.7-4.3-2.6l-9.1,4.1
		l-1.7-9.8c-1.9-0.9-3-1.3-5-2.1l2.6,14.3l-4.9,9.3L305.8,148.7z M281.1,361.6c-6.6,1.4-11.6,2.6-18.1,3.6l0.6,3.8
		c2.4-0.4,4.6-0.7,7.1-1l3.3,18.2l4.8-0.9l-3.9-18.1c2.5-0.6,4.8-1.2,7.2-1.8L281.1,361.6z M216.7,364.8c0,0.5,0,0.9,0,1.2
		c-0.4,3-2.4,6.1-5.7,6.4l0.8,10.5c-1.5-0.3-3.3-0.9-4.9-1.6l-0.2-9.9l-4.4-1.9l-3.6,8.7c-1.5-0.5-2.9-0.9-4.3-1.6l4.6-10.6l0.5-1.3
		l3.7-8.8l10.1,3.9C215.5,360.7,216.5,362.7,216.7,364.8z M212.5,364.8c-0.1-0.6-0.4-1.1-1.2-1.5l-5.7-2.1l-1.3,3.6l-0.4,1.3l0,0.1
		l5.1,1.9c1.4,0.6,2.8-0.6,3.3-2C212.5,365.7,212.6,365.3,212.5,364.8z M281,138.3c-1.8-0.5-3.1-0.7-5.1-1.3l3.7-12.5l2.7-8.9
		c3.9,1,7.5,2.2,11.2,3.4c2.1,0.6,3.2,3,3.4,5.5c0.1,3.4-1.6,7.1-5,7.9l1.3,10.1c-1.6-0.7-2.8-1.2-4.6-1.9l-1.2-8.8l-4.3-1.3
		L281,138.3z M284.1,126.5l5,1.6c1.4,0.4,3.2-1.8,3.2-3.7c0-0.9-0.3-1.7-1.5-2c-1.9-0.7-3.1-1-5.2-1.6l-1,3.5L284.1,126.5z
		 M259.6,375.5l4.9,11.8c-1.6,0.1-3.1,0.2-4.5,0.4l-1.5-3.8l-9.8,0.3l-1.1,4c-1.6-0.1-3-0.2-4.6-0.2l4.2-12.5l3-9.5l0.1-0.3l5-0.2
		l0.3,0.6L259.6,375.5z M256.7,379.8l-1.8-4.3l-1.8-4.7l-1.5,4.7l-1.5,4.6L256.7,379.8z M286.5,359.7l7.5,21.3
		c1.5-0.5,3-0.9,4.5-1.6l-7.2-21.2C289.2,358.9,288.3,359.2,286.5,359.7z M178.2,135.1l-1.2-2.2c3.3-2.1,6.8-3.9,10.2-5.7
		c4-2.2,9.7,3.1,9.3,8c-0.1,0.8-0.3,1.6-0.8,2.4l8.2,6c-1.5,0.7-2.7,1.3-4.6,2.1l-7.2-5.2l-4,2.1l4.2,7c-1.6,1-2.6,1.7-4.5,2.8
		L178.2,135.1z M183.1,134l0.6,1.1l2.3,3.9l4.7-2.5c0.4-0.2,0.7-0.8,0.8-1.5c0.1-2.1-1.5-5-3.7-3.7C186.1,132.3,185,132.9,183.1,134
		z"/>
</g>
</svg>
